<svg xmlns="http://www.w3.org/2000/svg" viewBox="0 0 100 100" width="100" height="100">
  <rect x="4" y="4" width="92" height="92" rx="22" fill="#F5EFE6" stroke="rgba(0,0,0,.08)" stroke-width="1.5"/>
  <!-- 原创小宠物:暖陶土色团子 -->
  <circle cx="36" cy="38" r="8.5" fill="#CC785C"/>
  <circle cx="64" cy="38" r="8.5" fill="#CC785C"/>
  <ellipse cx="50" cy="57" rx="27" ry="24" fill="#CC785C"/>
  <ellipse cx="50" cy="57" rx="27" ry="24" fill="none" stroke="rgba(0,0,0,.06)" stroke-width="1"/>
  <!-- 腮红 -->
  <circle cx="38" cy="62" r="5" fill="rgba(255,255,255,.22)"/>
  <circle cx="62" cy="62" r="5" fill="rgba(255,255,255,.22)"/>
  <!-- 眼睛 -->
  <circle cx="42" cy="54" r="3.4" fill="#2e2018"/>
  <circle cx="58" cy="54" r="3.4" fill="#2e2018"/>
  <circle cx="43.2" cy="52.8" r="1.1" fill="#fff"/>
  <circle cx="59.2" cy="52.8" r="1.1" fill="#fff"/>
  <!-- 微笑 -->
  <path d="M44 63 Q50 69 56 63" stroke="#2e2018" stroke-width="2.4" fill="none" stroke-linecap="round"/>
  <!-- 闪光 -->
  <path d="M76 24 l2 6 6 2 -6 2 -2 6 -2 -6 -6 -2 6 -2 z" fill="#E8A87C"/>
</svg>
