<svg xmlns="http://www.w3.org/2000/svg" width="242" height="242" viewBox="0 0 242 242"><g fill="#000" opacity="0.005"><rect x="209" y="0" width="10" height="10"/><rect x="55" y="11" width="10" height="10"/><rect x="121" y="11" width="10" height="10"/><rect x="176" y="11" width="10" height="10"/><rect x="77" y="22" width="10" height="10"/><rect x="121" y="22" width="10" height="10"/><rect x="132" y="22" width="10" height="10"/><rect x="220" y="22" width="10" height="10"/><rect x="0" y="33" width="10" height="10"/><rect x="110" y="33" width="10" height="10"/><rect x="132" y="55" width="10" height="10"/><rect x="66" y="66" width="10" height="10"/><rect x="44" y="77" width="10" height="10"/><rect x="77" y="77" width="10" height="10"/><rect x="143" y="77" width="10" height="10"/><rect x="66" y="88" width="10" height="10"/><rect x="99" y="99" width="10" height="10"/><rect x="165" y="110" width="10" height="10"/><rect x="176" y="110" width="10" height="10"/><rect x="0" y="121" width="10" height="10"/><rect x="88" y="121" width="10" height="10"/><rect x="176" y="121" width="10" height="10"/><rect x="231" y="121" width="10" height="10"/><rect x="99" y="132" width="10" height="10"/><rect x="66" y="143" width="10" height="10"/><rect x="44" y="154" width="10" height="10"/><rect x="121" y="165" width="10" height="10"/><rect x="55" y="176" width="10" height="10"/><rect x="187" y="176" width="10" height="10"/><rect x="209" y="176" width="10" height="10"/><rect x="220" y="176" width="10" height="10"/><rect x="22" y="187" width="10" height="10"/><rect x="132" y="187" width="10" height="10"/><rect x="165" y="187" width="10" height="10"/><rect x="176" y="198" width="10" height="10"/><rect x="66" y="209" width="10" height="10"/><rect x="99" y="209" width="10" height="10"/><rect x="22" y="220" width="10" height="10"/><rect x="110" y="231" width="10" height="10"/></g><g fill="#000" opacity="0.01"><rect x="11" y="0" width="10" height="10"/><rect x="143" y="0" width="10" height="10"/><rect x="88" y="11" width="10" height="10"/><rect x="110" y="11" width="10" height="10"/><rect x="154" y="11" width="10" height="10"/><rect x="198" y="22" width="10" height="10"/><rect x="231" y="22" width="10" height="10"/><rect x="77" y="33" width="10" height="10"/><rect x="88" y="33" width="10" height="10"/><rect x="66" y="44" width="10" height="10"/><rect x="209" y="44" width="10" height="10"/><rect x="220" y="44" width="10" height="10"/><rect x="154" y="55" width="10" height="10"/><rect x="11" y="66" width="10" height="10"/><rect x="176" y="66" width="10" height="10"/><rect x="220" y="66" width="10" height="10"/><rect x="33" y="77" width="10" height="10"/><rect x="55" y="77" width="10" height="10"/><rect x="154" y="88" width="10" height="10"/><rect x="176" y="88" width="10" height="10"/><rect x="198" y="88" width="10" height="10"/><rect x="66" y="99" width="10" height="10"/><rect x="176" y="99" width="10" height="10"/><rect x="209" y="99" width="10" height="10"/><rect x="220" y="121" width="10" height="10"/><rect x="231" y="132" width="10" height="10"/><rect x="0" y="143" width="10" height="10"/><rect x="77" y="143" width="10" height="10"/><rect x="121" y="143" width="10" height="10"/><rect x="11" y="165" width="10" height="10"/><rect x="33" y="165" width="10" height="10"/><rect x="110" y="165" width="10" height="10"/><rect x="154" y="165" width="10" height="10"/><rect x="22" y="176" width="10" height="10"/><rect x="99" y="187" width="10" height="10"/><rect x="44" y="198" width="10" height="10"/><rect x="110" y="198" width="10" height="10"/><rect x="11" y="209" width="10" height="10"/><rect x="77" y="209" width="10" height="10"/><rect x="154" y="209" width="10" height="10"/><rect x="0" y="220" width="10" height="10"/><rect x="33" y="231" width="10" height="10"/></g><g fill="#000" opacity="0.015"><rect x="55" y="0" width="10" height="10"/><rect x="0" y="11" width="10" height="10"/><rect x="187" y="22" width="10" height="10"/><rect x="22" y="44" width="10" height="10"/><rect x="121" y="44" width="10" height="10"/><rect x="66" y="55" width="10" height="10"/><rect x="220" y="55" width="10" height="10"/><rect x="66" y="77" width="10" height="10"/><rect x="176" y="77" width="10" height="10"/><rect x="44" y="88" width="10" height="10"/><rect x="209" y="88" width="10" height="10"/><rect x="231" y="88" width="10" height="10"/><rect x="11" y="99" width="10" height="10"/><rect x="33" y="99" width="10" height="10"/><rect x="22" y="110" width="10" height="10"/><rect x="99" y="110" width="10" height="10"/><rect x="121" y="121" width="10" height="10"/><rect x="209" y="121" width="10" height="10"/><rect x="154" y="132" width="10" height="10"/><rect x="176" y="132" width="10" height="10"/><rect x="22" y="143" width="10" height="10"/><rect x="165" y="143" width="10" height="10"/><rect x="88" y="154" width="10" height="10"/><rect x="165" y="154" width="10" height="10"/><rect x="0" y="165" width="10" height="10"/><rect x="22" y="165" width="10" height="10"/><rect x="11" y="176" width="10" height="10"/><rect x="99" y="176" width="10" height="10"/><rect x="132" y="176" width="10" height="10"/><rect x="143" y="176" width="10" height="10"/><rect x="176" y="176" width="10" height="10"/><rect x="0" y="187" width="10" height="10"/><rect x="11" y="187" width="10" height="10"/><rect x="0" y="198" width="10" height="10"/><rect x="11" y="198" width="10" height="10"/><rect x="187" y="198" width="10" height="10"/><rect x="88" y="209" width="10" height="10"/><rect x="165" y="209" width="10" height="10"/><rect x="176" y="209" width="10" height="10"/><rect x="44" y="220" width="10" height="10"/><rect x="154" y="220" width="10" height="10"/><rect x="66" y="231" width="10" height="10"/><rect x="176" y="231" width="10" height="10"/></g><g fill="#000" opacity="0.02"><rect x="77" y="0" width="10" height="10"/><rect x="88" y="0" width="10" height="10"/><rect x="110" y="0" width="10" height="10"/><rect x="132" y="0" width="10" height="10"/><rect x="231" y="0" width="10" height="10"/><rect x="66" y="11" width="10" height="10"/><rect x="220" y="11" width="10" height="10"/><rect x="22" y="22" width="10" height="10"/><rect x="88" y="22" width="10" height="10"/><rect x="176" y="22" width="10" height="10"/><rect x="209" y="22" width="10" height="10"/><rect x="66" y="33" width="10" height="10"/><rect x="154" y="33" width="10" height="10"/><rect x="143" y="44" width="10" height="10"/><rect x="33" y="55" width="10" height="10"/><rect x="22" y="66" width="10" height="10"/><rect x="44" y="66" width="10" height="10"/><rect x="99" y="66" width="10" height="10"/><rect x="110" y="77" width="10" height="10"/><rect x="231" y="77" width="10" height="10"/><rect x="220" y="88" width="10" height="10"/><rect x="231" y="99" width="10" height="10"/><rect x="220" y="110" width="10" height="10"/><rect x="143" y="121" width="10" height="10"/><rect x="55" y="143" width="10" height="10"/><rect x="132" y="143" width="10" height="10"/><rect x="198" y="143" width="10" height="10"/><rect x="165" y="165" width="10" height="10"/><rect x="231" y="165" width="10" height="10"/><rect x="0" y="176" width="10" height="10"/><rect x="88" y="176" width="10" height="10"/><rect x="22" y="198" width="10" height="10"/><rect x="44" y="209" width="10" height="10"/><rect x="121" y="209" width="10" height="10"/><rect x="209" y="209" width="10" height="10"/><rect x="121" y="220" width="10" height="10"/><rect x="55" y="231" width="10" height="10"/><rect x="88" y="231" width="10" height="10"/><rect x="198" y="231" width="10" height="10"/><rect x="220" y="231" width="10" height="10"/></g><g fill="#000" opacity="0.025"><rect x="66" y="0" width="10" height="10"/><rect x="33" y="11" width="10" height="10"/><rect x="99" y="11" width="10" height="10"/><rect x="66" y="22" width="10" height="10"/><rect x="99" y="22" width="10" height="10"/><rect x="110" y="22" width="10" height="10"/><rect x="165" y="22" width="10" height="10"/><rect x="0" y="44" width="10" height="10"/><rect x="44" y="44" width="10" height="10"/><rect x="77" y="44" width="10" height="10"/><rect x="165" y="55" width="10" height="10"/><rect x="176" y="55" width="10" height="10"/><rect x="198" y="66" width="10" height="10"/><rect x="187" y="77" width="10" height="10"/><rect x="33" y="88" width="10" height="10"/><rect x="55" y="88" width="10" height="10"/><rect x="165" y="88" width="10" height="10"/><rect x="121" y="99" width="10" height="10"/><rect x="88" y="110" width="10" height="10"/><rect x="55" y="121" width="10" height="10"/><rect x="165" y="121" width="10" height="10"/><rect x="66" y="132" width="10" height="10"/><rect x="220" y="132" width="10" height="10"/><rect x="88" y="143" width="10" height="10"/><rect x="187" y="143" width="10" height="10"/><rect x="209" y="143" width="10" height="10"/><rect x="66" y="154" width="10" height="10"/><rect x="99" y="154" width="10" height="10"/><rect x="154" y="154" width="10" height="10"/><rect x="176" y="165" width="10" height="10"/><rect x="77" y="176" width="10" height="10"/><rect x="165" y="176" width="10" height="10"/><rect x="121" y="187" width="10" height="10"/><rect x="22" y="209" width="10" height="10"/><rect x="33" y="209" width="10" height="10"/><rect x="231" y="220" width="10" height="10"/><rect x="143" y="231" width="10" height="10"/></g><g fill="#000" opacity="0.03"><rect x="0" y="0" width="10" height="10"/><rect x="154" y="0" width="10" height="10"/><rect x="44" y="11" width="10" height="10"/><rect x="132" y="11" width="10" height="10"/><rect x="198" y="11" width="10" height="10"/><rect x="209" y="11" width="10" height="10"/><rect x="22" y="33" width="10" height="10"/><rect x="121" y="33" width="10" height="10"/><rect x="11" y="44" width="10" height="10"/><rect x="176" y="44" width="10" height="10"/><rect x="55" y="55" width="10" height="10"/><rect x="88" y="55" width="10" height="10"/><rect x="231" y="55" width="10" height="10"/><rect x="121" y="66" width="10" height="10"/><rect x="154" y="66" width="10" height="10"/><rect x="165" y="66" width="10" height="10"/><rect x="187" y="88" width="10" height="10"/><rect x="154" y="99" width="10" height="10"/><rect x="99" y="121" width="10" height="10"/><rect x="77" y="132" width="10" height="10"/><rect x="165" y="132" width="10" height="10"/><rect x="187" y="132" width="10" height="10"/><rect x="11" y="154" width="10" height="10"/><rect x="22" y="154" width="10" height="10"/><rect x="66" y="165" width="10" height="10"/><rect x="154" y="176" width="10" height="10"/><rect x="66" y="187" width="10" height="10"/><rect x="55" y="209" width="10" height="10"/><rect x="110" y="209" width="10" height="10"/><rect x="143" y="220" width="10" height="10"/><rect x="165" y="220" width="10" height="10"/><rect x="187" y="231" width="10" height="10"/></g><g fill="#fff" opacity="0.005"><rect x="33" y="22" width="10" height="10"/><rect x="187" y="44" width="10" height="10"/><rect x="121" y="55" width="10" height="10"/><rect x="143" y="55" width="10" height="10"/><rect x="187" y="55" width="10" height="10"/><rect x="231" y="66" width="10" height="10"/><rect x="0" y="77" width="10" height="10"/><rect x="0" y="88" width="10" height="10"/><rect x="110" y="88" width="10" height="10"/><rect x="132" y="88" width="10" height="10"/><rect x="22" y="99" width="10" height="10"/><rect x="187" y="99" width="10" height="10"/><rect x="11" y="110" width="10" height="10"/><rect x="44" y="110" width="10" height="10"/><rect x="66" y="110" width="10" height="10"/><rect x="11" y="132" width="10" height="10"/><rect x="44" y="143" width="10" height="10"/><rect x="143" y="143" width="10" height="10"/><rect x="0" y="154" width="10" height="10"/><rect x="33" y="154" width="10" height="10"/><rect x="55" y="154" width="10" height="10"/><rect x="99" y="165" width="10" height="10"/><rect x="220" y="165" width="10" height="10"/><rect x="176" y="187" width="10" height="10"/><rect x="187" y="187" width="10" height="10"/><rect x="33" y="198" width="10" height="10"/><rect x="154" y="198" width="10" height="10"/><rect x="231" y="198" width="10" height="10"/><rect x="143" y="209" width="10" height="10"/><rect x="220" y="220" width="10" height="10"/><rect x="77" y="231" width="10" height="10"/></g><g fill="#fff" opacity="0.01"><rect x="187" y="0" width="10" height="10"/><rect x="77" y="11" width="10" height="10"/><rect x="55" y="33" width="10" height="10"/><rect x="220" y="33" width="10" height="10"/><rect x="231" y="33" width="10" height="10"/><rect x="55" y="44" width="10" height="10"/><rect x="231" y="44" width="10" height="10"/><rect x="110" y="55" width="10" height="10"/><rect x="132" y="66" width="10" height="10"/><rect x="143" y="66" width="10" height="10"/><rect x="88" y="88" width="10" height="10"/><rect x="143" y="88" width="10" height="10"/><rect x="110" y="99" width="10" height="10"/><rect x="132" y="99" width="10" height="10"/><rect x="143" y="110" width="10" height="10"/><rect x="198" y="110" width="10" height="10"/><rect x="154" y="121" width="10" height="10"/><rect x="22" y="132" width="10" height="10"/><rect x="55" y="132" width="10" height="10"/><rect x="143" y="132" width="10" height="10"/><rect x="187" y="154" width="10" height="10"/><rect x="110" y="176" width="10" height="10"/><rect x="88" y="187" width="10" height="10"/><rect x="209" y="187" width="10" height="10"/><rect x="132" y="198" width="10" height="10"/><rect x="165" y="198" width="10" height="10"/><rect x="231" y="209" width="10" height="10"/><rect x="110" y="220" width="10" height="10"/><rect x="187" y="220" width="10" height="10"/><rect x="22" y="231" width="10" height="10"/><rect x="154" y="231" width="10" height="10"/><rect x="209" y="231" width="10" height="10"/></g><g fill="#fff" opacity="0.015"><rect x="143" y="11" width="10" height="10"/><rect x="11" y="33" width="10" height="10"/><rect x="99" y="33" width="10" height="10"/><rect x="198" y="33" width="10" height="10"/><rect x="132" y="44" width="10" height="10"/><rect x="22" y="55" width="10" height="10"/><rect x="44" y="55" width="10" height="10"/><rect x="187" y="66" width="10" height="10"/><rect x="22" y="77" width="10" height="10"/><rect x="99" y="77" width="10" height="10"/><rect x="209" y="77" width="10" height="10"/><rect x="22" y="88" width="10" height="10"/><rect x="99" y="88" width="10" height="10"/><rect x="0" y="99" width="10" height="10"/><rect x="198" y="99" width="10" height="10"/><rect x="121" y="110" width="10" height="10"/><rect x="187" y="110" width="10" height="10"/><rect x="11" y="121" width="10" height="10"/><rect x="110" y="132" width="10" height="10"/><rect x="121" y="132" width="10" height="10"/><rect x="132" y="132" width="10" height="10"/><rect x="176" y="143" width="10" height="10"/><rect x="77" y="154" width="10" height="10"/><rect x="77" y="165" width="10" height="10"/><rect x="66" y="176" width="10" height="10"/><rect x="121" y="176" width="10" height="10"/><rect x="33" y="187" width="10" height="10"/><rect x="110" y="187" width="10" height="10"/><rect x="143" y="187" width="10" height="10"/><rect x="66" y="198" width="10" height="10"/><rect x="77" y="198" width="10" height="10"/><rect x="220" y="198" width="10" height="10"/><rect x="0" y="209" width="10" height="10"/><rect x="77" y="220" width="10" height="10"/><rect x="176" y="220" width="10" height="10"/><rect x="209" y="220" width="10" height="10"/><rect x="11" y="231" width="10" height="10"/><rect x="121" y="231" width="10" height="10"/></g><g fill="#fff" opacity="0.02"><rect x="44" y="0" width="10" height="10"/><rect x="99" y="0" width="10" height="10"/><rect x="198" y="0" width="10" height="10"/><rect x="0" y="22" width="10" height="10"/><rect x="11" y="22" width="10" height="10"/><rect x="154" y="22" width="10" height="10"/><rect x="143" y="33" width="10" height="10"/><rect x="187" y="33" width="10" height="10"/><rect x="154" y="44" width="10" height="10"/><rect x="11" y="55" width="10" height="10"/><rect x="198" y="55" width="10" height="10"/><rect x="88" y="66" width="10" height="10"/><rect x="209" y="66" width="10" height="10"/><rect x="11" y="77" width="10" height="10"/><rect x="88" y="77" width="10" height="10"/><rect x="154" y="77" width="10" height="10"/><rect x="165" y="77" width="10" height="10"/><rect x="198" y="77" width="10" height="10"/><rect x="77" y="88" width="10" height="10"/><rect x="44" y="99" width="10" height="10"/><rect x="165" y="99" width="10" height="10"/><rect x="0" y="110" width="10" height="10"/><rect x="77" y="110" width="10" height="10"/><rect x="154" y="110" width="10" height="10"/><rect x="209" y="110" width="10" height="10"/><rect x="22" y="121" width="10" height="10"/><rect x="33" y="121" width="10" height="10"/><rect x="132" y="121" width="10" height="10"/><rect x="198" y="132" width="10" height="10"/><rect x="11" y="143" width="10" height="10"/><rect x="33" y="143" width="10" height="10"/><rect x="99" y="143" width="10" height="10"/><rect x="110" y="143" width="10" height="10"/><rect x="176" y="154" width="10" height="10"/><rect x="231" y="154" width="10" height="10"/><rect x="55" y="165" width="10" height="10"/><rect x="209" y="165" width="10" height="10"/><rect x="198" y="176" width="10" height="10"/><rect x="231" y="176" width="10" height="10"/><rect x="220" y="187" width="10" height="10"/><rect x="132" y="209" width="10" height="10"/><rect x="198" y="220" width="10" height="10"/><rect x="0" y="231" width="10" height="10"/><rect x="132" y="231" width="10" height="10"/></g><g fill="#fff" opacity="0.025"><rect x="176" y="0" width="10" height="10"/><rect x="220" y="0" width="10" height="10"/><rect x="165" y="11" width="10" height="10"/><rect x="44" y="22" width="10" height="10"/><rect x="55" y="22" width="10" height="10"/><rect x="33" y="33" width="10" height="10"/><rect x="44" y="33" width="10" height="10"/><rect x="110" y="44" width="10" height="10"/><rect x="110" y="66" width="10" height="10"/><rect x="121" y="77" width="10" height="10"/><rect x="11" y="88" width="10" height="10"/><rect x="121" y="88" width="10" height="10"/><rect x="55" y="99" width="10" height="10"/><rect x="132" y="110" width="10" height="10"/><rect x="231" y="110" width="10" height="10"/><rect x="66" y="121" width="10" height="10"/><rect x="110" y="121" width="10" height="10"/><rect x="187" y="121" width="10" height="10"/><rect x="198" y="121" width="10" height="10"/><rect x="0" y="132" width="10" height="10"/><rect x="33" y="132" width="10" height="10"/><rect x="44" y="132" width="10" height="10"/><rect x="209" y="132" width="10" height="10"/><rect x="110" y="154" width="10" height="10"/><rect x="132" y="154" width="10" height="10"/><rect x="187" y="165" width="10" height="10"/><rect x="198" y="165" width="10" height="10"/><rect x="44" y="176" width="10" height="10"/><rect x="55" y="187" width="10" height="10"/><rect x="77" y="187" width="10" height="10"/><rect x="154" y="187" width="10" height="10"/><rect x="231" y="187" width="10" height="10"/><rect x="88" y="198" width="10" height="10"/><rect x="198" y="209" width="10" height="10"/><rect x="55" y="220" width="10" height="10"/><rect x="66" y="220" width="10" height="10"/><rect x="88" y="220" width="10" height="10"/><rect x="99" y="231" width="10" height="10"/><rect x="165" y="231" width="10" height="10"/><rect x="231" y="231" width="10" height="10"/></g><g fill="#fff" opacity="0.03"><rect x="22" y="0" width="10" height="10"/><rect x="33" y="0" width="10" height="10"/><rect x="187" y="11" width="10" height="10"/><rect x="132" y="33" width="10" height="10"/><rect x="165" y="33" width="10" height="10"/><rect x="33" y="44" width="10" height="10"/><rect x="99" y="44" width="10" height="10"/><rect x="77" y="55" width="10" height="10"/><rect x="99" y="55" width="10" height="10"/><rect x="209" y="55" width="10" height="10"/><rect x="0" y="66" width="10" height="10"/><rect x="33" y="66" width="10" height="10"/><rect x="77" y="66" width="10" height="10"/><rect x="143" y="99" width="10" height="10"/><rect x="110" y="110" width="10" height="10"/><rect x="77" y="121" width="10" height="10"/><rect x="154" y="143" width="10" height="10"/><rect x="198" y="154" width="10" height="10"/><rect x="209" y="154" width="10" height="10"/><rect x="220" y="154" width="10" height="10"/><rect x="33" y="220" width="10" height="10"/></g></svg>